<svg width="240" height="120" viewBox="0 0 240 120" fill="none" xmlns="http://www.w3.org/2000/svg">
<path d="M194.633 39.0781C189.281 39.0781 185.922 36.1875 185.922 31.5391C185.922 26.8906 189.281 24 194.633 24C199.984 24 203.344 26.8906 203.344 31.5391C203.344 36.1875 199.984 39.0781 194.633 39.0781ZM213.5 90.4062H174.672V80.0938H187.953V57.2422H175.805V46.9297H201.273V80.0938H213.5V90.4062Z" fill="black"/>
<path d="M165.258 46.9297V90.4062H151.82V83.3359H151.078C149.086 88.4922 144.555 91.4219 138.539 91.4219C129.086 91.4219 124.008 85.7188 124.008 75.0156V46.9297H137.836V71.9297C137.836 77.4766 139.984 80.1328 144.477 80.1328C148.812 80.1328 151.469 76.9688 151.469 71.7734V46.9297H165.258Z" fill="black"/>
<path d="M101.586 91.0703C95.1016 91.0703 90.9609 87.9844 89.9844 82.4375H89.125V90.4062H74.7109V30.6406H89.2031V54.7031H90.0625C91.1953 49.2344 95.3359 46.1875 101.586 46.1875C111.508 46.1875 116.898 52.8281 116.898 65.0547V72.2031C116.898 84.4297 111.508 91.0703 101.586 91.0703ZM95.8047 79.8594C100.219 79.8594 102.758 77.0859 102.758 72.2812V64.5469C102.758 59.7422 100.219 56.9688 95.8047 56.9688C91.3906 56.9688 88.8516 59.7422 88.8516 64.5469V72.2812C88.8516 77.0859 91.3906 79.8594 95.8047 79.8594Z" fill="black"/>
<path d="M39.3594 91.0703C29.4375 91.0703 24.0469 84.4297 24.0469 72.2031V65.0547C24.0469 52.8281 29.4375 46.1875 39.3594 46.1875C45.6094 46.1875 49.75 49.2344 50.8828 54.7031H51.7422V30.6406H66.2344V90.4062H51.8203V82.4375H50.9609C49.9844 87.9844 45.8438 91.0703 39.3594 91.0703ZM45.1406 79.8594C49.5547 79.8594 52.0938 77.0859 52.0938 72.2812V64.5469C52.0938 59.7422 49.5547 56.9688 45.1406 56.9688C40.7266 56.9688 38.1875 59.7422 38.1875 64.5469V72.2812C38.1875 77.0859 40.7266 79.8594 45.1406 79.8594Z" fill="black"/>
</svg>
