<svg preserveAspectRatio="none" width="100%" height="100%" overflow="visible" style="display: block;" viewBox="0 0 21 19.126" fill="none" xmlns="http://www.w3.org/2000/svg">
<g id="Group 40569">
<path id="Subtract" d="M6.13281 3.80762L3.49121 5.24316V13.8828L6.13281 15.3174V19.126L0 15.6006V3.52539L6.13281 0V3.80762ZM21 3.52539V15.6006L14.8828 19.1172V15.3096L17.5088 13.8828V5.24316L14.8828 3.81543V0.0078125L21 3.52539Z" fill="var(--fill-0, #FFDB96)"/>
<g id="Polygon 121 (Stroke)">
<path d="M15.341 6.89131V12.2359L10.5407 14.9082L5.7405 12.2359V6.89131L10.5407 4.21899L15.341 6.89131ZM7.09793 7.65162V11.4756L10.5407 13.3922L13.9836 11.4756V7.65162L10.5407 5.73496L7.09793 7.65162Z" fill="var(--fill-0, #FFAB00)"/>
<path d="M7.09793 7.65162V11.4756L10.5407 13.3922L13.9836 11.4756V7.65162L10.5407 5.73496L7.09793 7.65162Z" fill="var(--fill-0, #FFAB00)"/>
</g>
</g>
</svg>
