<svg preserveAspectRatio="none" width="100%" height="100%" overflow="visible" style="display: block;" viewBox="0 0 32 32" fill="none" xmlns="http://www.w3.org/2000/svg">
<g id="Frame 40707">
<g id="Subtract">
<path d="M8.7998 16.7402C10.8082 16.5039 13.2736 16.5247 15.4434 17.3926C18.2733 18.5245 21.3083 18.5039 23.5498 18.2402C24.2539 18.1574 24.8931 18.0459 25.4414 17.9355C23.3385 26.5315 16 28 16 28C15.9905 27.9981 8.22843 26.4398 6.38867 17.1709C6.98192 17.0268 7.82005 16.8555 8.7998 16.7402Z" fill="var(--fill-0, #4299E0)"/>
<path d="M26 7C26 7 26 0 26 13C26 13.6049 25.9778 14.186 25.9365 14.7441C25.8435 14.7686 25.7411 14.7969 25.6289 14.8242C25.0347 14.9692 24.1898 15.1443 23.2002 15.2607C21.1918 15.497 18.7264 15.4753 16.5566 14.6074C13.7267 13.4755 10.6917 13.4971 8.45019 13.7607C7.50458 13.872 6.67509 14.0295 6.02734 14.1758C6.00878 13.7942 6 13.4024 6 13C6 10.6569 6 7 6 7L16 4L26 7Z" fill="var(--fill-0, #4299E0)"/>
</g>
<path id="Subtract_2" d="M8.79981 16.7402C10.8082 16.5039 13.2736 16.5247 15.4434 17.3926C18.2733 18.5245 21.3083 18.5039 23.5498 18.2402C24.2539 18.1574 24.8931 18.0459 25.4414 17.9355C23.3385 26.5315 16 28 16 28C15.9905 27.9981 8.22844 26.4398 6.38867 17.1709C6.98192 17.0268 7.82005 16.8555 8.79981 16.7402Z" fill="var(--fill-0, #BAE1FC)"/>
</g>
</svg>
