<svg preserveAspectRatio="none" width="100%" height="100%" overflow="visible" style="display: block;" viewBox="0 0 21.4286 23.9903" fill="none" xmlns="http://www.w3.org/2000/svg">
<g id="Frame 40374">
<g id="Polygon 11">
<path d="M20.9521 8.71387V11.5918H0.475586V8.71387L10.667 0L20.9521 8.71387Z" fill="var(--fill-0, #FABFBA)"/>
<path d="M20.9521 8.71387V11.5918H0.475586V8.71387L10.667 0L20.9521 8.71387Z" stroke="var(--stroke-0, #FF5F46)"/>
</g>
<path id="Subtract" d="M15.8291 23.9903C13.972 23.9903 12.2304 23.5546 10.7119 22.7921L10.7129 22.7921C9.19421 22.0278 7.45181 21.5909 5.59375 21.5909C3.85196 21.5909 2.21354 21.9748 0.762695 22.6524L0.474609 22.7921L0.47461 19.1026L20.9521 19.1026L20.9521 22.7921L20.9463 22.7921C19.426 23.5545 17.6861 23.9903 15.8291 23.9903Z" fill="var(--fill-0, #FF5F46)"/>
<path id="Subtract_2" d="M15.8291 16.1643C13.972 16.1643 12.2304 15.7286 10.7119 14.9661L10.7129 14.9661C9.19421 14.2018 7.45181 13.7649 5.59375 13.7649C3.85196 13.7649 2.21355 14.1488 0.762695 14.8264L0.47461 14.9661L0.47461 11.5921L20.9521 11.5921L20.9521 14.9661L20.9463 14.9661C19.426 15.7285 17.6861 16.1643 15.8291 16.1643Z" fill="var(--fill-0, #FABFBA)"/>
<path id="Subtract_3" d="M5.59766 16.1643C7.45473 16.1644 9.19638 16.6001 10.7148 17.3626H10.7139C12.2325 18.1269 13.9749 18.5637 15.833 18.5637C17.5748 18.5637 19.2132 18.1799 20.6641 17.5022L20.9521 17.3626V21.0511H0.474609L0.474609 17.3626H0.480469C2.0008 16.6002 3.74062 16.1643 5.59766 16.1643Z" fill="var(--fill-0, #FF5F46)"/>
</g>
</svg>
