<svg preserveAspectRatio="none" width="100%" height="100%" overflow="visible" style="display: block;" viewBox="0 0 20.4785 21.1185" fill="none" xmlns="http://www.w3.org/2000/svg">
<g id="Group 40413">
<path id="Union" d="M20.4785 11.5211H0.000976562V7.78577H20.4785V11.5211Z" fill="var(--fill-0, #9ED6C4)"/>
<path id="Subtract" d="M20.4775 21.1185H0V17.7709H20.4775V21.1185Z" fill="var(--fill-0, #00A972)"/>
<path id="Subtract_2" d="M5.12305 14.5934C6.98013 14.5934 8.72178 15.0292 10.2402 15.7917H10.2393C11.7579 16.556 13.5003 16.9928 15.3584 16.9928C17.1002 16.9928 18.7386 16.609 20.1895 15.9313L20.4775 15.7917V19.4801H0L0 15.7917H0.00585938C1.52619 15.0292 3.26601 14.5934 5.12305 14.5934Z" fill="var(--fill-0, #00A972)"/>
<path id="Subtract_3" d="M15.3545 14.5934C13.4974 14.5934 11.7558 14.1576 10.2373 13.3952L10.2383 13.3952C8.7196 12.6308 6.9772 12.194 5.11914 12.194C3.37736 12.194 1.73893 12.5779 0.288086 13.2555L1.04754e-07 13.3952L4.27211e-07 9.70669L20.4775 9.7067L20.4775 13.3952L20.4717 13.3952C18.9514 14.1576 17.2115 14.5934 15.3545 14.5934Z" fill="var(--fill-0, #9ED6C4)"/>
<rect id="Rectangle 3693" x="0.000488281" width="20.4777" height="5.64812" fill="var(--fill-0, #9ED6C4)"/>
</g>
</svg>
