<svg width="126" height="32" viewBox="0 0 126 32" fill="none" xmlns="http://www.w3.org/2000/svg">
<path d="M25.631 19.8434V17.0072L25.3092 16.8338L17.9898 20.8556L11.0398 17.0373L11.0412 15.3928L17.9898 19.168L25.631 15.0114V12.2183L25.3092 12.0448L17.9898 16.0667L11.326 12.4047L17.9898 8.76566L23.3707 11.7036L23.7741 11.4842V11.1573L17.9898 8L10.3501 12.171V12.5825L17.9898 16.7506L24.9399 12.9567V14.6199L17.9898 18.4382L10.6719 14.4178L10.3501 14.5913V17.4259L17.9898 21.5826L24.9399 17.8016V19.4548L17.9898 23.2731L10.6719 19.2512L10.3501 19.4247V19.8434L17.9898 24L25.631 19.8434Z" fill="#FF4949" stroke="#FF4949" stroke-width="0.5"/>
<g clip-path="url(#clip0_3215_8646)">
<path d="M45.6656 21.6213V8.90625H43.7092V13.6638C43.7092 13.7346 43.6667 13.7912 43.5958 13.8195C43.5249 13.8478 43.454 13.8195 43.4115 13.777C42.7452 12.9983 41.7103 12.5593 40.5761 12.5593C38.1519 12.5593 36.2522 14.5983 36.2522 17.2036C36.2522 18.4779 36.6917 19.6532 37.4998 20.5169C38.3078 21.3806 39.3995 21.8478 40.5761 21.8478C41.6961 21.8478 42.731 21.3806 43.4115 20.5735C43.454 20.5169 43.5391 20.5027 43.5958 20.5169C43.6667 20.5452 43.7092 20.6018 43.7092 20.6726V21.6213H45.6656ZM41.0014 20.0779C39.442 20.0779 38.2228 18.8178 38.2228 17.2036C38.2228 15.5894 39.442 14.3293 41.0014 14.3293C42.5609 14.3293 43.7801 15.5894 43.7801 17.2036C43.7801 18.8178 42.5609 20.0779 41.0014 20.0779Z" fill="black"/>
<path d="M56.1281 21.6071V12.7717H54.1859V13.6637C54.1859 13.7345 54.1434 13.7911 54.0725 13.8194C54.0016 13.8478 53.9307 13.8194 53.8882 13.7628C53.2361 12.984 52.2153 12.5451 51.0528 12.5451C48.6286 12.5451 46.7289 14.584 46.7289 17.1894C46.7289 19.7947 48.6286 21.8336 51.0528 21.8336C52.1728 21.8336 53.2077 21.3663 53.8882 20.5451C53.9307 20.4885 54.0158 20.4743 54.0725 20.4885C54.1434 20.5168 54.1859 20.5734 54.1859 20.6442V21.6071H56.1281ZM51.4923 20.0778C49.9329 20.0778 48.7136 18.8177 48.7136 17.2035C48.7136 15.5894 49.9329 14.3292 51.4923 14.3292C53.0518 14.3292 54.271 15.5894 54.271 17.2035C54.271 18.8177 53.0518 20.0778 51.4923 20.0778Z" fill="black"/>
<path d="M72.7575 21.6212V12.7717H70.8153V13.6637C70.8153 13.7345 70.7728 13.7911 70.7019 13.8194C70.631 13.8478 70.5601 13.8194 70.5176 13.7628C69.8655 12.984 68.8447 12.5451 67.6822 12.5451C65.2438 12.5451 63.3583 14.584 63.3583 17.2035C63.3583 19.823 65.258 21.8478 67.6822 21.8478C68.8022 21.8478 69.8371 21.3805 70.5176 20.5593C70.5601 20.5026 70.6452 20.4885 70.7019 20.5026C70.7728 20.5309 70.8153 20.5876 70.8153 20.6584V21.6212H72.7575ZM68.1217 20.0778C66.5622 20.0778 65.343 18.8177 65.343 17.2035C65.343 15.5894 66.5622 14.3292 68.1217 14.3292C69.6812 14.3292 70.9004 15.5894 70.9004 17.2035C70.9004 18.8177 69.6812 20.0778 68.1217 20.0778Z" fill="black"/>
<path d="M76.3159 20.5734C76.3301 20.5734 76.3584 20.5592 76.3726 20.5592C76.4152 20.5592 76.4719 20.5875 76.5002 20.6159C77.1665 21.3946 78.2014 21.8336 79.3356 21.8336C81.7598 21.8336 83.6595 19.7946 83.6595 17.1893C83.6595 15.915 83.22 14.7398 82.412 13.876C81.6039 13.0123 80.5123 12.5451 79.3356 12.5451C78.2156 12.5451 77.1807 13.0123 76.5002 13.8194C76.4577 13.876 76.3868 13.8902 76.3159 13.876C76.245 13.8477 76.2025 13.7911 76.2025 13.7203V8.90613H74.2461V21.6212H76.2025V20.7291C76.2025 20.6583 76.245 20.6017 76.3159 20.5734ZM76.1174 17.2035C76.1174 15.5893 77.3367 14.3291 78.8961 14.3291C80.4556 14.3291 81.6748 15.5893 81.6748 17.2035C81.6748 18.8176 80.4556 20.0778 78.8961 20.0778C77.3367 20.0778 76.1174 18.8035 76.1174 17.2035Z" fill="black"/>
<path d="M89.3162 14.584C89.5005 14.584 89.6706 14.5982 89.784 14.6265V12.6159C89.7131 12.6017 89.5855 12.5875 89.4579 12.5875C88.4372 12.5875 87.5015 13.1114 87.0053 13.9468C86.9628 14.0176 86.8919 14.0459 86.821 14.0176C86.7502 14.0035 86.6935 13.9327 86.6935 13.8619V12.7716H84.7512V21.6353H86.7076V17.7274C86.7076 15.7875 87.7 14.584 89.3162 14.584Z" fill="black"/>
<path d="M93.0021 12.7716H91.0173V21.6353H93.0021V12.7716Z" fill="black"/>
<path d="M91.9814 8.92024C91.3151 8.92024 90.7764 9.4583 90.7764 10.1238C90.7764 10.7893 91.3151 11.3273 91.9814 11.3273C92.6477 11.3273 93.1864 10.7893 93.1864 10.1238C93.1864 9.4583 92.6477 8.92024 91.9814 8.92024Z" fill="black"/>
<path d="M98.8146 12.5451C96.0926 12.5451 94.1221 14.4991 94.1221 17.2035C94.1221 18.5203 94.5899 19.6955 95.4263 20.5451C96.277 21.3947 97.4678 21.8619 98.8004 21.8619C99.9062 21.8619 100.757 21.6495 102.373 20.4601L101.253 19.2849C100.459 19.8088 99.7219 20.0637 98.9989 20.0637C97.3544 20.0637 96.121 18.8318 96.121 17.2035C96.121 15.5752 97.3544 14.3433 98.9989 14.3433C99.7786 14.3433 100.502 14.5982 101.225 15.1221L102.472 13.9469C101.012 12.7009 99.6936 12.5451 98.8146 12.5451Z" fill="black"/>
<path d="M105.818 17.7273C105.846 17.699 105.889 17.6848 105.931 17.6848H105.946C105.988 17.6848 106.031 17.7132 106.073 17.7415L109.206 21.6211H111.616L107.562 16.722C107.505 16.6512 107.505 16.5521 107.576 16.4955L111.304 12.7716H108.909L105.69 15.9999C105.648 16.0424 105.577 16.0565 105.506 16.0424C105.449 16.014 105.407 15.9574 105.407 15.8866V8.92024H103.436V21.6353H105.393V18.1804C105.393 18.1379 105.407 18.0813 105.449 18.053L105.818 17.7273Z" fill="black"/>
<path d="M114.806 21.8477C116.408 21.8477 118.038 20.8707 118.038 19.0158C118.038 17.7981 117.273 16.9627 115.713 16.453L114.65 16.099C113.927 15.8583 113.587 15.5185 113.587 15.0512C113.587 14.5132 114.069 14.145 114.749 14.145C115.402 14.145 115.983 14.5698 116.351 15.3061L117.925 14.4565C117.344 13.2671 116.139 12.5309 114.749 12.5309C112.991 12.5309 111.716 13.6636 111.716 15.207C111.716 16.4388 112.453 17.2601 113.97 17.7415L115.061 18.0955C115.827 18.3362 116.153 18.6477 116.153 19.1432C116.153 19.8937 115.458 20.1627 114.863 20.1627C114.069 20.1627 113.36 19.653 113.02 18.8176L111.418 19.6671C111.942 21.0123 113.232 21.8477 114.806 21.8477Z" fill="black"/>
<path d="M61.5721 21.7628C62.1958 21.7628 62.7487 21.7062 63.0606 21.6637V19.9646C62.8054 19.9929 62.3518 20.0212 62.0824 20.0212C61.2885 20.0212 60.6789 19.8796 60.6789 18.1663V14.5274C60.6789 14.4283 60.7498 14.3575 60.849 14.3575H62.7629V12.7575H60.849C60.7498 12.7575 60.6789 12.6867 60.6789 12.5876V10.0389H58.7225V12.6017C58.7225 12.7008 58.6516 12.7716 58.5524 12.7716H57.1914V14.3716H58.5524C58.6516 14.3716 58.7225 14.4424 58.7225 14.5415V18.6619C58.7225 21.7628 60.7923 21.7628 61.5721 21.7628Z" fill="black"/>
</g>
<defs>
<clipPath id="clip0_3215_8646">
<rect width="82" height="16" fill="white" transform="translate(36 8)"/>
</clipPath>
</defs>
</svg>
